<?xml version="1.0" encoding="UTF-8" standalone="no"?>
<!-- Created with Inkscape (http://www.inkscape.org/) -->

<svg
   xmlns:dc="http://purl.org/dc/elements/1.1/"
   xmlns:cc="http://creativecommons.org/ns#"
   xmlns:rdf="http://www.w3.org/1999/02/22-rdf-syntax-ns#"
   xmlns:svg="http://www.w3.org/2000/svg"
   xmlns="http://www.w3.org/2000/svg"
   xmlns:sodipodi="http://sodipodi.sourceforge.net/DTD/sodipodi-0.dtd"
   xmlns:inkscape="http://www.inkscape.org/namespaces/inkscape"
   width="744.09448819"
   height="1052.3622047"
   id="svg2"
   version="1.1"
   inkscape:version="0.48.4 r9939"
   sodipodi:docname="toExtrude19.svg">
  <defs
     id="defs4" />
  <sodipodi:namedview
     id="base"
     pagecolor="#ffffff"
     bordercolor="#666666"
     borderopacity="1.0"
     inkscape:pageopacity="0.0"
     inkscape:pageshadow="2"
     inkscape:zoom="0.24748737"
     inkscape:cx="221.44512"
     inkscape:cy="215.52443"
     inkscape:document-units="px"
     inkscape:current-layer="layer1"
     showgrid="false"
     inkscape:window-width="1280"
     inkscape:window-height="1548"
     inkscape:window-x="1"
     inkscape:window-y="24"
     inkscape:window-maximized="0" />
  <metadata
     id="metadata7">
    <rdf:RDF>
      <cc:Work
         rdf:about="">
        <dc:format>image/svg+xml</dc:format>
        <dc:type
           rdf:resource="http://purl.org/dc/dcmitype/StillImage" />
        <dc:title></dc:title>
      </cc:Work>
    </rdf:RDF>
  </metadata>
  <g
     inkscape:label="Layer 1"
     inkscape:groupmode="layer"
     id="layer1">
    <path
       sodipodi:type="arc"
       style="fill:#0038ff;fill-opacity:0.41552513;stroke:#000000;stroke-width:10;stroke-linecap:round;stroke-miterlimit:4;stroke-opacity:1;stroke-dasharray:none;stroke-dashoffset:0"
       id="path2985"
       sodipodi:cx="245.71428"
       sodipodi:cy="399.50504"
       sodipodi:rx="62.857143"
       sodipodi:ry="135.71428"
       d="m 308.57142,399.50504 a 62.857143,135.71428 0 1 1 -125.71428,0 62.857143,135.71428 0 1 1 125.71428,0 z"
       transform="translate(-771.42857,-751.42857)" />
    <path
       sodipodi:type="arc"
       style="fill:#0038ff;fill-opacity:0.41552513;stroke:#000000;stroke-width:10;stroke-linecap:round;stroke-miterlimit:4;stroke-opacity:1;stroke-dasharray:none;stroke-dashoffset:0"
       id="path2987"
       sodipodi:cx="475.71429"
       sodipodi:cy="612.36218"
       sodipodi:rx="141.42857"
       sodipodi:ry="137.14285"
       d="m 617.14287,612.36218 a 141.42857,137.14285 0 1 1 -282.85715,0 141.42857,137.14285 0 1 1 282.85715,0 z"
       transform="translate(-1417.1429,1037.1429)" />
    <path
       sodipodi:type="arc"
       style="fill:#0038ff;fill-opacity:0.41552513;stroke:#000000;stroke-width:10;stroke-linecap:round;stroke-miterlimit:4;stroke-opacity:1;stroke-dasharray:none;stroke-dashoffset:0"
       id="path2989"
       sodipodi:cx="534.28571"
       sodipodi:cy="269.50504"
       sodipodi:rx="82.85714"
       sodipodi:ry="128.57143"
       d="m 617.14285,269.50504 a 82.85714,128.57143 0 1 1 -165.71428,0 82.85714,128.57143 0 1 1 165.71428,0 z"
       transform="translate(-722.85714,1345.7143)" />
    <path
       sodipodi:type="arc"
       style="fill:#0038ff;fill-opacity:0.41552513;stroke:#000000;stroke-width:10;stroke-linecap:round;stroke-miterlimit:4;stroke-opacity:1;stroke-dasharray:none;stroke-dashoffset:0"
       id="path2991"
       sodipodi:cx="164.28572"
       sodipodi:cy="796.64789"
       sodipodi:rx="112.85714"
       sodipodi:ry="190"
       d="m 277.14286,796.64789 a 112.85714,190 0 1 1 -225.714279,0 112.85714,190 0 1 1 225.714279,0 z"
       transform="translate(-865.71429,1471.4286)" />
    <path
       sodipodi:type="arc"
       style="fill:#0038ff;fill-opacity:0.41552513;stroke:#000000;stroke-width:10;stroke-linecap:round;stroke-miterlimit:4;stroke-opacity:1;stroke-dasharray:none;stroke-dashoffset:0"
       id="path2993"
       sodipodi:cx="492.85715"
       sodipodi:cy="608.07648"
       sodipodi:rx="72.85714"
       sodipodi:ry="72.85714"
       d="m 565.71429,608.07648 a 72.85714,72.85714 0 1 1 -145.71428,0 72.85714,72.85714 0 1 1 145.71428,0 z"
       transform="translate(-788.57143,-822.85714)" />
    <path
       sodipodi:type="arc"
       style="fill:#0038ff;fill-opacity:0.41552513;stroke:#000000;stroke-width:10;stroke-linecap:round;stroke-miterlimit:4;stroke-opacity:1;stroke-dasharray:none;stroke-dashoffset:0"
       id="path2995"
       sodipodi:cx="538.57141"
       sodipodi:cy="269.50504"
       sodipodi:rx="38.57143"
       sodipodi:ry="82.85714"
       d="m 577.14284,269.50504 a 38.57143,82.85714 0 1 1 -77.14286,0 38.57143,82.85714 0 1 1 77.14286,0 z"
       transform="translate(-1234.2857,2014.2857)" />
    <path
       sodipodi:type="arc"
       style="fill:#0038ff;fill-opacity:0.41552513;stroke:#000000;stroke-width:10;stroke-linecap:round;stroke-miterlimit:4;stroke-opacity:1;stroke-dasharray:none;stroke-dashoffset:0"
       id="path2997"
       sodipodi:cx="360"
       sodipodi:cy="616.64789"
       sodipodi:rx="514.28571"
       sodipodi:ry="692.85712"
       d="m 874.28571,616.64789 a 514.28571,692.85712 0 1 1 -1028.57142,0 514.28571,692.85712 0 1 1 1028.57142,0 z"
       transform="translate(-831.42857,-785.71429)" />
    <path
       sodipodi:type="arc"
       style="fill:#0038ff;fill-opacity:0.41552513;stroke:#000000;stroke-width:10;stroke-linecap:round;stroke-miterlimit:4;stroke-opacity:1;stroke-dasharray:none;stroke-dashoffset:0"
       id="path3040"
       sodipodi:cx="390"
       sodipodi:cy="685.2193"
       sodipodi:rx="821.42859"
       sodipodi:ry="950"
       d="m 1211.4286,685.2193 a 821.42859,950 0 1 1 -1642.85719,0 821.42859,950 0 1 1 1642.85719,0 z"
       transform="translate(-1005.7143,1300)" />
  </g>
</svg>
